# xmcd
#
# Track frame offsets:
#	150
#	13254
#	26879
#	42430
#	60153
#	75083
#	98161
#	111982
#	128714
#	145957
#	160963
#	174492
#	190830
#
# Disc length: 2782 seconds
#
# Revision: 0
# Processed by: cddbd v1.4PL0 Copyright (c) Steve Scherf et al.
# Submitted via: dBpowerAMP V4.0
#
DISCID=a50adc0d
DTITLE=bruno e marrone - todo sentimento
DYEAR=1900
DGENRE=Country
TTITLE0=24 horas de amor
TTITLE1=apenas um sorriso
TTITLE2=dormi na praça 
TTITLE3=dor e saudade
TTITLE4=só sei te amar
TTITLE5=por-pourri de boleros
TTITLE6=amor de carnaval
TTITLE7=bom perdedor
TTITLE8=vida vazia
TTITLE9=sozinho na noite
TTITLE10=tô machucado
TTITLE11=esta noite eu queria que o mundo acabasse
TTITLE12=só pro meu prazer
EXTD=
EXTT0=
EXTT1=
EXTT2=
EXTT3=
EXTT4=
EXTT5=
EXTT6=
EXTT7=
EXTT8=
EXTT9=
EXTT10=
EXTT11=
EXTT12=
PLAYORDER=
